<svg width="40" height="40" viewBox="0 0 40 40" fill="none" xmlns="http://www.w3.org/2000/svg">
<path d="M19.8105 9.17188C16.2871 9.17188 13.4043 12.0594 13.4043 15.5375C13.4043 19.0156 16.2871 21.9688 19.8105 21.9688C23.334 21.9688 26.2168 19.0812 26.2168 15.6031C26.2168 12.125 23.334 9.17188 19.8105 9.17188ZM19.8105 19.0156C17.8887 19.0156 16.2871 17.5062 16.2871 15.6031C16.2871 13.7 17.8887 12.125 19.8105 12.125C21.7324 12.125 23.334 13.6344 23.334 15.5375C23.334 17.4406 21.7324 19.0156 19.8105 19.0156Z" fill="black"/>
<path d="M19.8107 0.181244C9.1123 0.181244 0.463867 9.04062 0.463867 20C0.463867 30.9594 9.1123 39.8844 19.8107 39.8844C30.5092 39.8844 39.2217 30.9594 39.2217 20C39.2217 9.04062 30.5092 0.181244 19.8107 0.181244ZM11.9951 34.8312V29.45C11.9951 27.35 13.6607 25.6437 15.7107 25.6437H24.0389C26.0889 25.6437 27.7545 27.35 27.7545 29.45V34.8312C25.4482 36.1437 22.7576 36.8656 19.8748 36.8656C16.992 36.9312 14.3014 36.1437 11.9951 34.8312ZM30.5732 32.7969V29.45C30.5732 25.7094 27.6264 22.6906 23.9748 22.6906H15.6467C11.9951 22.6906 9.04824 25.7094 9.04824 29.45V32.7969C5.5248 29.7125 3.28262 25.1187 3.28262 20C3.34668 10.6812 10.7139 3.13437 19.8107 3.13437C28.9076 3.13437 36.3389 10.7469 36.3389 20.0656C36.3389 25.1187 34.0967 29.7125 30.5732 32.7969Z" fill="black"/>
</svg>
