<svg width="24" height="22" viewBox="0 0 24 22" fill="none" xmlns="http://www.w3.org/2000/svg">
<path d="M22.5 2.82502L20.5125 0.837524C19.3875 -0.287476 17.5875 -0.287476 16.4625 0.837524L5.1375 12.1625C4.7625 12.5375 4.7625 13.175 5.1375 13.5875L5.25 13.7L3.4125 15.5C3.075 15.8375 2.8875 16.2875 2.85 16.7L1.0125 18.5375C0.75 18.8 0.6375 19.175 0.675 19.5125C0.7125 19.85 0.9375 20.1875 1.275 20.3375L4.05 21.8375C4.2375 21.95 4.425 21.9875 4.6125 21.9875C4.9125 21.9875 5.25 21.875 5.475 21.6125L6.6375 20.45C7.05 20.4125 7.5 20.225 7.8 19.8875L9.6375 18.05L9.7125 18.125C9.9 18.3125 10.1625 18.425 10.425 18.425C10.6875 18.425 10.95 18.3125 11.1375 18.125L22.5 6.83752C23.025 6.31252 23.325 5.60002 23.325 4.81252C23.325 4.06252 23.0625 3.35002 22.5 2.82502ZM4.5 20.225L2.7 19.25L3.525 18.425L4.9125 19.8125L4.5 20.225ZM8.4375 16.925L6.6 18.7625C6.4875 18.875 6.3 18.875 6.1875 18.7625L4.575 17.15C4.5 17.0375 4.5 16.9625 4.5 16.925C4.5 16.8875 4.5 16.775 4.575 16.7L6.4125 14.8625L7.425 15.875L8.4375 16.925ZM21.3 5.63752L10.425 16.5125L8.625 14.7125L6.7875 12.875L17.6625 2.00002C18.1125 1.55002 18.8625 1.55002 19.3125 2.00002L21.3 3.98752C21.7875 4.47502 21.7875 5.18752 21.3 5.63752Z" fill="white"/>
</svg>
