<svg width="37" height="38" viewBox="0 0 37 38" fill="none" xmlns="http://www.w3.org/2000/svg">
<path d="M35.9598 7.06562C35.9598 6.59062 35.7863 6.11562 35.4394 5.75937C34.7457 5.04687 34.0519 4.33437 33.416 3.62187C32.7801 2.96875 32.202 2.31562 31.566 1.72187C31.2769 1.36562 30.9301 1.12812 30.4676 1.06875C29.9473 1.00937 29.4848 1.12812 29.0801 1.48437L25.1488 5.52187H4.6832C2.71758 5.52187 1.04102 7.18437 1.04102 9.2625V33.25C1.04102 35.2688 2.65977 36.9906 4.6832 36.9906H28.0973C30.0629 36.9906 31.7395 35.3281 31.7395 33.25V12.1719L35.4973 8.3125C35.7863 7.95625 35.9598 7.54062 35.9598 7.06562ZM18.9629 21.375C18.9051 21.4344 18.9051 21.4344 18.8473 21.4344L14.6848 22.8594L16.0723 18.5844C16.0723 18.525 16.1301 18.525 16.1301 18.4656L26.5363 7.77812L29.427 10.6875L18.9629 21.375ZM29.0801 33.25C29.0801 33.8438 28.6176 34.3188 28.0395 34.3188H4.6832C4.10508 34.3188 3.64258 33.8438 3.64258 33.25V9.20312C3.64258 8.60937 4.10508 8.13437 4.6832 8.13437H22.4895L14.2801 16.625C13.991 16.9219 13.702 17.3375 13.5863 17.8125L11.4473 24.4625C11.2738 24.9375 11.3895 25.3531 11.6207 25.7688C11.7941 26.0063 12.141 26.3625 12.777 26.3625H13.0082L19.6566 24.1063C20.0613 23.9875 20.466 23.6906 20.7551 23.3938L29.0801 14.8438V33.25ZM31.2191 8.84687L28.3285 5.9375L30.1207 4.09687C30.5832 4.57187 32.491 6.53125 32.9535 7.06562L31.2191 8.84687Z" fill="black"/>
</svg>
